<?xml version="1.0" standalone="no"?>
<!DOCTYPE svg PUBLIC "-//W3C//DTD SVG 20010904//EN"
 "http://www.w3.org/TR/2001/REC-SVG-20010904/DTD/svg10.dtd">
<svg version="1.0" xmlns="http://www.w3.org/2000/svg"
 width="700.000000pt" height="700.000000pt" viewBox="0 0 700.000000 700.000000"
 preserveAspectRatio="xMidYMid meet">
<metadata>
Created by potrace 1.14, written by Peter Selinger 2001-2017
</metadata>
<g transform="translate(0.000000,700.000000) scale(0.100000,-0.100000)"
fill="#000000" stroke="none">
<path d="M847 6564 c-1 -1 -31 -5 -67 -8 -69 -7 -188 -34 -205 -46 -5 -4 -30
-15 -55 -24 -81 -31 -211 -124 -289 -206 -48 -51 -113 -151 -150 -232 -75
-162 -74 -153 -78 -726 l-4 -513 43 2 43 2 873 874 c480 480 867 873 860 874
-22 1 -970 4 -971 3z"/>
<path d="M1893 5695 c-480 -478 -873 -873 -873 -876 0 -4 281 -7 624 -7 l624
0 868 869 c478 478 870 872 872 877 1 4 -278 7 -620 7 l-623 0 -872 -870z"/>
<path d="M4952 6558 c-9 -3 -408 -398 -886 -876 l-869 -870 629 0 629 0 872
871 c480 479 870 873 868 876 -7 7 -1225 7 -1243 -1z"/>
<path d="M6096 5521 l-709 -709 807 0 807 0 -3 512 -4 511 -26 88 c-15 48 -41
116 -59 150 -36 69 -91 157 -99 157 -3 0 -324 -319 -714 -709z"/>
<path d="M0 2800 c1 -1020 5 -1593 11 -1625 6 -27 12 -60 15 -73 21 -106 95
-249 179 -349 149 -177 362 -290 584 -310 101 -8 5370 -8 5441 1 360 45 638
292 747 661 17 56 18 163 21 1665 l2 1605 -3500 0 -3500 0 0 -1575z"/>
</g>
</svg>
